<svg width="41" height="47" viewBox="0 0 41 47" fill="none" xmlns="http://www.w3.org/2000/svg">
<mask id="mask0_7_46" style="mask-type:luminance" maskUnits="userSpaceOnUse" x="17" y="17" width="8" height="30">
<path d="M17.1841 17.9418H24.6189V46.0308H17.1841V17.9418Z" fill="white"/>
</mask>
<g mask="url(#mask0_7_46)">
<mask id="mask1_7_46" style="mask-type:luminance" maskUnits="userSpaceOnUse" x="17" y="17" width="8" height="30">
<path d="M20.8477 17.9418C21.8186 17.9443 22.749 18.331 23.4355 19.0175C24.122 19.704 24.5088 20.6344 24.5112 21.6053V42.3674C24.5112 43.3391 24.1252 44.2711 23.438 44.9582C22.7509 45.6454 21.8189 46.0314 20.8472 46.0314C19.8754 46.0314 18.9434 45.6454 18.2563 44.9582C17.5691 44.2711 17.1831 43.3391 17.1831 42.3674V21.6042C17.1858 20.6333 17.5729 19.703 18.2596 19.0167C18.9463 18.3304 19.8769 17.944 20.8477 17.9418Z" fill="white"/>
</mask>
<g mask="url(#mask1_7_46)">
<path d="M17.1841 17.9418H24.6189V46.1353H17.1841V17.9418Z" fill="white"/>
</g>
</g>
<mask id="mask2_7_46" style="mask-type:luminance" maskUnits="userSpaceOnUse" x="1" y="24" width="8" height="23">
<path d="M1.52686 24.9257H8.44754V46.0297H1.52686V24.9257Z" fill="white"/>
</mask>
<g mask="url(#mask2_7_46)">
<mask id="mask3_7_46" style="mask-type:luminance" maskUnits="userSpaceOnUse" x="1" y="24" width="8" height="22">
<path d="M4.86095 24.9257C5.2988 24.9245 5.7326 25.0097 6.13747 25.1764C6.54235 25.3431 6.91035 25.5881 7.22039 25.8973C7.53043 26.2065 7.77641 26.5738 7.94425 26.9782C8.11209 27.3826 8.19848 27.8162 8.19848 28.254V42.7014C8.18227 43.5754 7.82369 44.4081 7.19987 45.0205C6.57605 45.6328 5.73682 45.9759 4.86267 45.9759C3.98852 45.9759 3.14929 45.6328 2.52547 45.0205C1.90164 44.4081 1.54307 43.5754 1.52686 42.7014V28.2598C1.52686 27.377 1.87752 26.5305 2.50171 25.9063C3.12589 25.2821 3.97247 24.9314 4.85521 24.9314" fill="white"/>
</mask>
<g mask="url(#mask3_7_46)">
<path d="M1.52686 24.9257H8.19045V45.9425H1.52686V24.9257Z" fill="white"/>
</g>
</g>
<mask id="mask4_7_46" style="mask-type:luminance" maskUnits="userSpaceOnUse" x="32" y="24" width="8" height="23">
<path d="M32.1245 24.9257H39.0452V46.0297H32.1245V24.9257Z" fill="white"/>
</mask>
<g mask="url(#mask4_7_46)">
<mask id="mask5_7_46" style="mask-type:luminance" maskUnits="userSpaceOnUse" x="32" y="24" width="7" height="22">
<path d="M35.463 24.9257C35.9009 24.9245 36.3346 25.0097 36.7395 25.1764C37.1444 25.3431 37.5124 25.5881 37.8224 25.8973C38.1325 26.2065 38.3785 26.5738 38.5463 26.9782C38.7141 27.3826 38.8005 27.8162 38.8005 28.254V42.7014C38.7843 43.5754 38.4257 44.4081 37.8019 45.0205C37.1781 45.6328 36.3389 45.9759 35.4647 45.9759C34.5906 45.9759 33.7513 45.6328 33.1275 45.0205C32.5037 44.4081 32.1451 43.5754 32.1289 42.7014V28.2598C32.1289 27.377 32.4796 26.5305 33.1038 25.9063C33.7279 25.2821 34.5745 24.9314 35.4573 24.9314" fill="white"/>
</mask>
<g mask="url(#mask5_7_46)">
<path d="M32.1245 24.9256H38.7915V45.9424H32.1245V24.9256Z" fill="white"/>
</g>
</g>
<mask id="mask6_7_46" style="mask-type:luminance" maskUnits="userSpaceOnUse" x="30" y="12" width="11" height="10">
<path d="M30.8325 12.5132H40.409V21.3505H30.8325V12.5132Z" fill="white"/>
</mask>
<g mask="url(#mask6_7_46)">
<path fill-rule="evenodd" clip-rule="evenodd" d="M35.6207 12.5132L36.8522 15.2023C36.9005 15.3059 36.9744 15.3956 37.0668 15.4628C37.1632 15.5271 37.274 15.5666 37.3893 15.5776L40.4044 15.884L38.1526 17.8581C38.0654 17.9324 38.0003 18.0293 37.9644 18.1381C37.9273 18.2455 37.9205 18.3611 37.9448 18.4721L38.5784 21.3528L35.9501 19.8792C35.8498 19.8214 35.736 19.7909 35.6202 19.7909C35.5043 19.7909 35.3906 19.8214 35.2902 19.8792L32.6619 21.3528L33.2955 18.4721C33.3199 18.3611 33.3131 18.2455 33.276 18.1381C33.24 18.0293 33.1749 17.9324 33.0877 17.8581L30.8359 15.8897L33.851 15.5833C33.9654 15.573 34.0752 15.5335 34.17 15.4685C34.2633 15.4013 34.3383 15.3117 34.3881 15.208L35.6207 12.5132Z" fill="white"/>
</g>
<mask id="mask7_7_46" style="mask-type:luminance" maskUnits="userSpaceOnUse" x="0" y="12" width="10" height="10">
<path d="M0.249512 12.5132H9.82599V21.3505H0.249512V12.5132Z" fill="white"/>
</mask>
<g mask="url(#mask7_7_46)">
<path fill-rule="evenodd" clip-rule="evenodd" d="M5.03772 12.5132L6.26921 15.2023C6.31933 15.3061 6.3947 15.3957 6.48843 15.4628C6.58285 15.5276 6.69231 15.5671 6.80634 15.5776L9.82137 15.884L7.56957 17.8581C7.4824 17.9324 7.4173 18.0293 7.38134 18.1381C7.34616 18.2459 7.33944 18.3609 7.36183 18.4721L7.99537 21.3528L5.37171 19.8792C5.2697 19.8218 5.15475 19.7914 5.03772 19.7908C4.92211 19.7911 4.80857 19.8216 4.70833 19.8792L2.07893 21.3528L2.71247 18.4721C2.73682 18.3611 2.73007 18.2455 2.69296 18.1381C2.65722 18.0303 2.59392 17.9338 2.50932 17.8581L0.25293 15.8897L3.26796 15.5833C3.3833 15.5723 3.49412 15.5329 3.59046 15.4685C3.68295 15.4013 3.75681 15.3117 3.80509 15.208L5.03772 12.5132Z" fill="white"/>
</g>
<mask id="mask8_7_46" style="mask-type:luminance" maskUnits="userSpaceOnUse" x="13" y="0" width="15" height="14">
<path d="M13.8638 0.101868H27.8589V13.3579H13.8638V0.101868Z" fill="white"/>
</mask>
<g mask="url(#mask8_7_46)">
<path fill-rule="evenodd" clip-rule="evenodd" d="M20.8613 0.101868L22.6644 4.13836C22.7333 4.29399 22.8417 4.4289 22.9788 4.52972C23.1162 4.62962 23.278 4.69068 23.4471 4.70647L27.8555 5.16556L24.5592 8.11976C24.4324 8.23452 24.3371 8.37996 24.2826 8.54211C24.2298 8.70326 24.2207 8.87554 24.2562 9.04136L25.1813 13.3613L21.3457 11.1509C21.1972 11.0656 21.0291 11.0205 20.8579 11.02C20.6882 11.0207 20.5216 11.0658 20.3747 11.1509L16.5379 13.3579L17.463 9.03792C17.4985 8.8721 17.4894 8.69981 17.4366 8.53867C17.3837 8.37685 17.29 8.23138 17.1646 8.11631L13.8672 5.16556L18.2755 4.70647C18.4447 4.69068 18.6064 4.62962 18.7438 4.52972C18.8819 4.42899 18.9914 4.29414 19.0617 4.13836L20.8613 0.101868Z" fill="white"/>
</g>
</svg>
