<svg width="22" height="22" viewBox="0 0 22 22" fill="none" xmlns="http://www.w3.org/2000/svg">
<path d="M12.8887 2.3434C12.5779 2.3434 12.2799 2.21995 12.0602 2.00021C11.8404 1.78048 11.717 1.48245 11.717 1.1717C11.717 0.860944 11.8404 0.562918 12.0602 0.343182C12.2799 0.123446 12.5779 0 12.8887 0H19.9189C20.2296 0 20.5276 0.123446 20.7474 0.343182C20.9671 0.562918 21.0906 0.860944 21.0906 1.1717V8.20189C21.0906 8.51264 20.9671 8.81066 20.7474 9.0304C20.5276 9.25014 20.2296 9.37358 19.9189 9.37358C19.6081 9.37358 19.3101 9.25014 19.0903 9.0304C18.8706 8.81066 18.7472 8.51264 18.7472 8.20189V4.00018L7.85858 14.8888C7.63759 15.1022 7.34162 15.2203 7.0344 15.2176C6.72719 15.215 6.43331 15.0917 6.21607 14.8745C5.99883 14.6572 5.8756 14.3634 5.87293 14.0562C5.87026 13.7489 5.98836 13.453 6.2018 13.232L17.0904 2.3434H12.8887ZM0 4.68679C0 4.06528 0.246893 3.46923 0.686365 3.02976C1.12584 2.59029 1.72189 2.3434 2.3434 2.3434H8.20189C8.51264 2.3434 8.81066 2.46684 9.0304 2.68658C9.25014 2.90631 9.37358 3.20434 9.37358 3.51509C9.37358 3.82585 9.25014 4.12387 9.0304 4.34361C8.81066 4.56334 8.51264 4.68679 8.20189 4.68679H2.3434V18.7472H16.4038V12.8887C16.4038 12.5779 16.5272 12.2799 16.747 12.0602C16.9667 11.8404 17.2647 11.717 17.5755 11.717C17.8862 11.717 18.1842 11.8404 18.404 12.0602C18.6237 12.2799 18.7472 12.5779 18.7472 12.8887V18.7472C18.7472 19.3687 18.5003 19.9647 18.0608 20.4042C17.6213 20.8437 17.0253 21.0906 16.4038 21.0906H2.3434C1.72189 21.0906 1.12584 20.8437 0.686365 20.4042C0.246893 19.9647 0 19.3687 0 18.7472V4.68679Z" fill="white"/>
</svg>
