<svg width="40" height="43" viewBox="0 0 40 43" fill="none" xmlns="http://www.w3.org/2000/svg">
<path d="M36.3793 28.7386L38.8354 30.2042C38.9862 30.2948 39.1115 30.4224 39.1992 30.5749C39.2424 30.6519 39.2756 30.734 39.2979 30.8194C39.3205 30.904 39.3317 30.9912 39.3312 31.0788C39.3314 31.1663 39.3202 31.2535 39.2979 31.3382C39.2751 31.4223 39.2419 31.5033 39.1992 31.5792C39.1564 31.6556 39.1035 31.7258 39.0419 31.7881C38.9805 31.8508 38.9115 31.9055 38.8365 31.9511L20.9173 42.6523C20.5998 42.8434 20.2361 42.9445 19.8655 42.9445C19.4948 42.9445 19.1311 42.8434 18.8136 42.6523L0.895566 31.9499C0.820111 31.905 0.751016 31.8502 0.690127 31.7869C0.627812 31.7253 0.57484 31.655 0.532891 31.578C0.488003 31.5032 0.454724 31.4219 0.434188 31.337C0.411137 31.2525 0.399177 31.1653 0.398609 31.0776C0.398843 30.99 0.410809 30.9028 0.434188 30.8183C0.454164 30.7321 0.487466 30.6497 0.532891 30.5738C0.575514 30.4973 0.628418 30.427 0.690127 30.3649C0.751035 30.3017 0.820127 30.2469 0.895566 30.2019L3.35166 28.7363L19.8649 38.6066L36.3793 28.7386ZM36.3793 19.1782L38.8354 20.6438C38.9862 20.7344 39.1115 20.862 39.1992 21.0145C39.2419 21.0913 39.2751 21.173 39.2979 21.2579C39.3205 21.3424 39.3317 21.4297 39.3312 21.5172C39.3314 21.6048 39.3202 21.692 39.2979 21.7766C39.2751 21.8607 39.2419 21.9417 39.1992 22.0176C39.1564 22.094 39.1035 22.1643 39.0419 22.2265C38.9812 22.2899 38.9121 22.3448 38.8365 22.3895L19.866 33.7231L0.895566 22.3872C0.744695 22.2966 0.619462 22.169 0.531743 22.0165C0.486856 21.9416 0.453577 21.8603 0.43304 21.7755C0.40999 21.6909 0.39803 21.6037 0.397461 21.5161C0.397682 21.4284 0.409648 21.3412 0.43304 21.2567C0.453592 21.1711 0.486863 21.0891 0.531743 21.0134C0.574442 20.9373 0.627344 20.8674 0.688979 20.8057C0.749887 20.7424 0.818979 20.6876 0.894419 20.6427L3.35166 19.1736L19.8649 29.0439L36.3793 19.1782ZM20.915 0.483195L38.8342 11.1856C38.9092 11.2312 38.9782 11.2859 39.0396 11.3485C39.1006 11.4113 39.1534 11.4815 39.1969 11.5574C39.2396 11.6342 39.2728 11.7159 39.2956 11.8007C39.3182 11.8853 39.3294 11.9726 39.3289 12.0601C39.3291 12.1477 39.3179 12.2349 39.2956 12.3195C39.2494 12.4895 39.161 12.6451 39.0385 12.7717C38.977 12.8333 38.9079 12.8869 38.833 12.9312L19.866 24.2649L0.895566 12.9312C0.74316 12.8426 0.617472 12.7146 0.531743 12.5605C0.486856 12.4856 0.453577 12.4044 0.43304 12.3195C0.409792 12.2342 0.39783 12.1462 0.397461 12.0578C0.397682 11.9702 0.409648 11.8829 0.43304 11.7984C0.453576 11.7129 0.486847 11.6308 0.531743 11.5551C0.574354 11.4786 0.62726 11.4084 0.688979 11.3463C0.749905 11.283 0.818995 11.2282 0.894419 11.1833L18.8136 0.483195C19.1317 0.293583 19.4951 0.193481 19.8655 0.193481C20.2358 0.193481 20.5992 0.293583 20.9173 0.483195H20.915ZM19.866 4.59773L7.37667 12.0578L19.866 19.5179L32.3554 12.0578L19.866 4.59773Z" fill="white"/>
</svg>
