<svg width="62" height="54" viewBox="0 0 62 54" fill="none" xmlns="http://www.w3.org/2000/svg">
<path d="M15.412 46.6315H46.438L47.8072 28.4358C47.8108 28.3816 47.8035 28.3274 47.7858 28.2761C47.768 28.2249 47.7402 28.1777 47.7039 28.1373C47.6661 28.0964 47.6198 28.0641 47.5683 28.0427C47.5168 28.0213 47.4613 28.0113 47.4055 28.0134H14.4342C14.3799 28.0111 14.3259 28.0211 14.276 28.0425C14.2261 28.064 14.1817 28.0964 14.1461 28.1373C14.1087 28.1769 14.0801 28.224 14.0623 28.2754C14.0445 28.3269 14.0378 28.3815 14.0428 28.4358L15.412 46.6315ZM47.2035 48.259H14.6499C14.4431 48.2606 14.2433 48.184 14.0906 48.0446C13.9378 47.9052 13.8432 47.7133 13.8259 47.5072L12.3958 28.5597C12.3757 28.2816 12.4139 28.0024 12.508 27.7399C12.6021 27.4775 12.75 27.2375 12.9422 27.0355C13.1331 26.8309 13.3641 26.6678 13.6207 26.5562C13.8774 26.4447 14.1543 26.3871 14.4342 26.3871H47.4009C47.6799 26.3862 47.9561 26.4429 48.2121 26.5537C48.4682 26.6645 48.6986 26.8269 48.889 27.0309C49.0794 27.2348 49.2256 27.4759 49.3185 27.739C49.4114 28.002 49.449 28.2814 49.4289 28.5597L48.0035 47.5072C47.9886 47.7124 47.8963 47.9043 47.7452 48.0439C47.594 48.1835 47.3955 48.2604 47.1898 48.259" fill="white"/>
<path d="M47.2035 48.259H14.6499C14.4431 48.2606 14.2433 48.184 14.0906 48.0446C13.9378 47.9052 13.8432 47.7133 13.8259 47.5072L12.3958 28.5597C12.3757 28.2816 12.4139 28.0024 12.508 27.7399C12.6021 27.4775 12.75 27.2375 12.9422 27.0355C13.1331 26.8309 13.3641 26.6678 13.6207 26.5562C13.8774 26.4447 14.1543 26.3871 14.4342 26.3871H47.4009C47.6799 26.3862 47.9561 26.4429 48.2121 26.5537C48.4682 26.6645 48.6986 26.8269 48.889 27.0309C49.0794 27.2348 49.2256 27.4759 49.3185 27.739C49.4114 28.002 49.449 28.2814 49.4289 28.5597L48.0035 47.5072C47.9886 47.7124 47.8963 47.9043 47.7452 48.0439C47.594 48.1835 47.3955 48.2604 47.1898 48.259M15.412 46.6315H46.438L47.8072 28.4358C47.8108 28.3816 47.8035 28.3274 47.7858 28.2761C47.768 28.2249 47.7402 28.1777 47.7039 28.1373C47.6661 28.0964 47.6198 28.0641 47.5683 28.0427C47.5168 28.0213 47.4613 28.0113 47.4055 28.0134H14.4342C14.3799 28.0111 14.3259 28.0211 14.276 28.0425C14.2261 28.064 14.1817 28.0964 14.1461 28.1373C14.1087 28.1769 14.0801 28.224 14.0623 28.2754C14.0445 28.3269 14.0378 28.3815 14.0428 28.4358L15.412 46.6315Z" stroke="white" stroke-miterlimit="10"/>
<path d="M30.9197 27.9938C30.7988 27.9953 30.679 27.9702 30.5687 27.9205C30.4585 27.8707 30.3605 27.7974 30.2816 27.7057L27.0359 23.8644C26.9196 23.7254 26.8544 23.5508 26.8511 23.3697V20.6152C26.8622 20.4042 26.9539 20.2054 27.1072 20.06C27.2605 19.9146 27.4638 19.8335 27.6751 19.8335C27.8865 19.8335 28.0897 19.9146 28.243 20.06C28.3964 20.2054 28.488 20.4042 28.4992 20.6152V23.0965L30.9186 25.9589L33.3379 23.0965V20.6209C33.3396 20.516 33.3619 20.4124 33.4038 20.3162C33.4457 20.2199 33.5062 20.1329 33.5818 20.0601C33.6574 19.9874 33.7467 19.9303 33.8445 19.8922C33.9423 19.8541 34.0467 19.8358 34.1516 19.8382C34.2572 19.8354 34.3622 19.8535 34.4607 19.8914C34.5592 19.9292 34.6493 19.9861 34.7259 20.0588C34.8024 20.1315 34.8638 20.2186 34.9067 20.315C34.9496 20.4115 34.973 20.5154 34.9757 20.6209V23.3754C34.9772 23.5575 34.9114 23.7336 34.7909 23.8701L31.5578 27.7057C31.4789 27.7974 31.3809 27.8707 31.2707 27.9205C31.1604 27.9702 31.0406 27.9953 30.9197 27.9938Z" fill="white" stroke="white" stroke-width="0.98" stroke-miterlimit="10"/>
<path d="M38.5495 12.7534C38.4419 12.7544 38.3352 12.734 38.2355 12.6936C38.1357 12.6531 38.045 12.5934 37.9684 12.5178C37.8919 12.4422 37.831 12.3522 37.7893 12.253C37.7476 12.1538 37.7259 12.0473 37.7254 11.9397V8.98093C37.7157 7.18691 36.9966 5.46959 35.7252 4.20391C34.4537 2.93823 32.7331 2.22701 30.939 2.22552H30.9184C29.1138 2.23576 27.386 2.95719 26.1099 4.23327C24.8338 5.50935 24.1124 7.23714 24.1021 9.04176V11.9351C24.1035 12.0424 24.0834 12.1488 24.043 12.2482C24.0026 12.3475 23.9427 12.4378 23.8669 12.5136C23.7911 12.5895 23.7008 12.6493 23.6015 12.6897C23.5021 12.7301 23.3957 12.7502 23.2884 12.7489C23.1808 12.7498 23.0741 12.7294 22.9744 12.689C22.8747 12.6485 22.7839 12.5888 22.7074 12.5132C22.6308 12.4376 22.5699 12.3476 22.5282 12.2484C22.4865 12.1492 22.4648 12.0427 22.4644 11.9351V9.04635C22.463 7.91307 22.6943 6.79158 23.1438 5.75128C23.5804 4.7425 24.2061 3.82661 24.987 3.05302C26.563 1.4843 28.6959 0.603316 30.9195 0.602661H30.9505C33.1757 0.602017 35.3107 1.48215 36.889 3.05075C38.4673 4.61936 39.3605 6.74889 39.3735 8.97404V11.9294C39.3731 12.037 39.3514 12.1435 39.3097 12.2426C39.268 12.3418 39.2071 12.4318 39.1306 12.5074C39.054 12.583 38.9632 12.6428 38.8635 12.6832C38.7638 12.7237 38.6571 12.744 38.5495 12.7431" fill="white"/>
<path d="M38.5495 12.7534C38.4419 12.7544 38.3352 12.734 38.2355 12.6936C38.1357 12.6531 38.045 12.5934 37.9684 12.5178C37.8919 12.4422 37.831 12.3522 37.7893 12.253C37.7476 12.1538 37.7259 12.0473 37.7254 11.9397V8.98093C37.7157 7.18691 36.9966 5.46959 35.7252 4.20391C34.4537 2.93823 32.7331 2.22701 30.939 2.22552H30.9184C29.1138 2.23576 27.386 2.95719 26.1099 4.23327C24.8338 5.50935 24.1124 7.23714 24.1021 9.04176V11.9351C24.1035 12.0424 24.0834 12.1488 24.043 12.2482C24.0026 12.3475 23.9427 12.4378 23.8669 12.5136C23.7911 12.5895 23.7008 12.6493 23.6015 12.6897C23.5021 12.7301 23.3957 12.7502 23.2884 12.7489C23.1808 12.7498 23.0741 12.7294 22.9744 12.689C22.8747 12.6485 22.7839 12.5888 22.7074 12.5132C22.6308 12.4376 22.5699 12.3476 22.5282 12.2484C22.4865 12.1492 22.4648 12.0427 22.4644 11.9351V9.04635C22.463 7.91307 22.6943 6.79158 23.1438 5.75128C23.5804 4.7425 24.2061 3.82661 24.987 3.05302C26.563 1.4843 28.6959 0.603316 30.9195 0.602661H30.9505C33.1757 0.602017 35.3107 1.48215 36.889 3.05075C38.4673 4.61936 39.3605 6.74889 39.3735 8.97404V11.9294C39.3731 12.037 39.3514 12.1435 39.3097 12.2426C39.268 12.3418 39.2071 12.4318 39.1306 12.5074C39.054 12.583 38.9632 12.6428 38.8635 12.6832C38.7638 12.7237 38.6571 12.744 38.5495 12.7431" stroke="white" stroke-miterlimit="10"/>
<path d="M26.1005 11.2602V15.5227C26.1005 16.8036 26.6093 18.032 27.515 18.9378C28.4208 19.8435 29.6492 20.3523 30.9301 20.3523C32.2109 20.3523 33.4393 19.8435 34.3451 18.9378C35.2508 18.032 35.7596 16.8036 35.7596 15.5227V10.7552L34.2045 9.04049C31.7334 10.8837 27.8198 11.2131 26.1108 11.2647L26.1005 11.2602ZM30.9301 21.9338C29.2228 21.9372 27.5838 21.264 26.3719 20.0615C25.16 18.859 24.4739 17.2254 24.4639 15.5182V10.4464C24.4664 10.2262 24.555 10.0157 24.7106 9.85995C24.7891 9.78287 24.8825 9.72273 24.9852 9.68325C25.0879 9.64376 25.1975 9.62578 25.3074 9.63041C25.3694 9.63041 31.2285 9.77502 33.6995 7.32352C33.7791 7.24386 33.8747 7.18185 33.9799 7.14152C34.0851 7.10118 34.1976 7.08342 34.3101 7.08938C34.4216 7.09311 34.5312 7.11968 34.6321 7.16745C34.733 7.21523 34.823 7.28318 34.8965 7.36713L37.1919 9.91045C37.3253 10.0611 37.3985 10.2556 37.3974 10.4568V15.5331C37.3892 17.2408 36.7037 18.8756 35.4914 20.0784C34.2791 21.2813 32.639 21.9539 30.9312 21.9488" fill="white"/>
<path d="M30.9301 21.9338C29.2228 21.9372 27.5838 21.264 26.3719 20.0615C25.16 18.859 24.4739 17.2254 24.4639 15.5182V10.4464C24.4664 10.2262 24.555 10.0157 24.7106 9.85995C24.7891 9.78287 24.8825 9.72273 24.9852 9.68325C25.0879 9.64376 25.1975 9.62578 25.3074 9.63041C25.3694 9.63041 31.2285 9.77502 33.6995 7.32352C33.7791 7.24386 33.8747 7.18185 33.9799 7.14152C34.0851 7.10118 34.1976 7.08342 34.3101 7.08938C34.4216 7.09311 34.5312 7.11968 34.6321 7.16745C34.733 7.21523 34.823 7.28318 34.8965 7.36713L37.1919 9.91045C37.3253 10.0611 37.3985 10.2556 37.3974 10.4568V15.5331C37.3892 17.2408 36.7037 18.8756 35.4914 20.0784C34.2791 21.2813 32.639 21.9539 30.9312 21.9488M26.1005 11.2602V15.5227C26.1005 16.8036 26.6093 18.032 27.515 18.9378C28.4208 19.8435 29.6492 20.3523 30.9301 20.3523C32.2109 20.3523 33.4393 19.8435 34.3451 18.9378C35.2508 18.032 35.7596 16.8036 35.7596 15.5227V10.7552L34.2045 9.04049C31.7334 10.8837 27.8198 11.2131 26.1108 11.2647L26.1005 11.2602Z" stroke="white" stroke-width="0.5" stroke-miterlimit="10"/>
<path d="M24.4524 12.4344C24.1328 12.4344 23.8263 12.5613 23.6003 12.7873C23.3743 13.0133 23.2473 13.3198 23.2473 13.6395C23.2473 13.9591 23.3743 14.2656 23.6003 14.4916C23.8263 14.7176 24.1328 14.8446 24.4524 14.8446V12.4344ZM25.2765 16.4709H24.4731C23.722 16.4709 23.0017 16.1725 22.4706 15.6414C21.9395 15.1103 21.6411 14.39 21.6411 13.6389C21.6411 12.8878 21.9395 12.1675 22.4706 11.6364C23.0017 11.1053 23.722 10.8069 24.4731 10.8069H25.2765C25.3841 10.806 25.4908 10.8264 25.5905 10.8668C25.6902 10.9072 25.781 10.967 25.8575 11.0426C25.9341 11.1182 25.995 11.2082 26.0367 11.3074C26.0784 11.4066 26.1001 11.513 26.1005 11.6206V15.6571C26.0978 15.8739 26.0098 16.0808 25.8556 16.2332C25.7013 16.3855 25.4933 16.4709 25.2765 16.4709Z" fill="white" stroke="white" stroke-width="0.5" stroke-miterlimit="10"/>
<path d="M37.3869 12.4343V14.8445C37.7065 14.8445 38.013 14.7175 38.239 14.4915C38.465 14.2655 38.592 13.959 38.592 13.6394C38.592 13.3198 38.465 13.0133 38.239 12.7873C38.013 12.5613 37.7065 12.4343 37.3869 12.4343ZM37.3662 16.4708H36.5628C36.4552 16.4717 36.3485 16.4514 36.2488 16.4109C36.1491 16.3705 36.0583 16.3107 35.9818 16.2351C35.9052 16.1595 35.8443 16.0695 35.8026 15.9703C35.7609 15.8711 35.7392 15.7647 35.7388 15.6571V11.6206C35.7385 11.5128 35.7596 11.406 35.8011 11.3064C35.8425 11.2069 35.9033 11.1166 35.9801 11.0408C36.0568 10.9651 36.1478 10.9053 36.2479 10.8652C36.348 10.825 36.455 10.8052 36.5628 10.8069H37.3662C38.1173 10.8069 38.8376 11.1052 39.3687 11.6363C39.8998 12.1674 40.1982 12.8877 40.1982 13.6388C40.1982 14.3899 39.8998 15.1102 39.3687 15.6413C38.8376 16.1724 38.1173 16.4708 37.3662 16.4708Z" fill="white" stroke="white" stroke-width="0.5" stroke-miterlimit="10"/>
<path d="M17.6279 28.0133C17.4743 28.0124 17.3241 27.9684 17.1943 27.8863C17.0645 27.8042 16.9604 27.6872 16.8938 27.5488C16.8273 27.4103 16.801 27.256 16.818 27.1033C16.835 26.9507 16.8945 26.8058 16.9898 26.6854C17.8942 25.5665 19.1136 24.7448 20.4903 24.3268L27.4718 22.1852C27.678 22.1224 27.9008 22.144 28.0911 22.2454C28.2813 22.3468 28.4235 22.5196 28.4864 22.7258C28.5492 22.932 28.5276 23.1548 28.4262 23.345C28.3249 23.5353 28.152 23.6775 27.9458 23.7404H27.9148L20.9563 25.882C19.8918 26.2057 18.9485 26.8404 18.2477 27.7045C18.1699 27.7991 18.0726 27.8756 17.9625 27.9289C17.8523 27.9822 17.7319 28.011 17.6096 28.0133" fill="white"/>
<path d="M17.6279 28.0133C17.4743 28.0124 17.3241 27.9684 17.1943 27.8863C17.0645 27.8042 16.9604 27.6872 16.8938 27.5488C16.8273 27.4103 16.801 27.256 16.818 27.1033C16.835 26.9507 16.8945 26.8058 16.9898 26.6854C17.8942 25.5665 19.1136 24.7448 20.4903 24.3268L27.4718 22.1852C27.678 22.1224 27.9008 22.144 28.0911 22.2454C28.2813 22.3468 28.4235 22.5196 28.4864 22.7258C28.5492 22.932 28.5276 23.1548 28.4262 23.345C28.3249 23.5353 28.152 23.6775 27.9458 23.7404H27.9148L20.9563 25.882C19.8918 26.2057 18.9485 26.8404 18.2477 27.7045C18.1699 27.7991 18.0726 27.8756 17.9625 27.9289C17.8523 27.9822 17.7319 28.011 17.6096 28.0133" stroke="white" stroke-miterlimit="10"/>
<path d="M44.224 28.0133C44.1012 28.0133 43.9801 27.9855 43.8696 27.9321C43.7591 27.8786 43.6621 27.8008 43.5859 27.7045C42.8831 26.8379 41.9357 26.2028 40.867 25.882L33.8855 23.7404C33.6792 23.6775 33.5064 23.5353 33.405 23.345C33.3037 23.1548 33.282 22.932 33.3449 22.7258C33.4077 22.5196 33.5499 22.3468 33.7402 22.2454C33.9305 22.144 34.1532 22.1224 34.3595 22.1852H34.3904L41.3513 24.3268C42.7297 24.7471 43.9519 25.5682 44.8621 26.6854C44.9548 26.8066 45.012 26.951 45.0276 27.1028C45.0432 27.2545 45.0164 27.4076 44.9504 27.5451C44.8843 27.6825 44.7815 27.799 44.6533 27.8817C44.5251 27.9643 44.3765 28.0099 44.224 28.0133Z" fill="white" stroke="white" stroke-miterlimit="10"/>
<path d="M26.8927 41.3186C26.7119 41.322 26.5362 41.2596 26.398 41.143L22.2376 37.9719C22.1389 37.8949 22.059 37.7966 22.0037 37.6843C21.9485 37.572 21.9193 37.4486 21.9185 37.3235C21.9173 37.198 21.9456 37.074 22.001 36.9613C22.0564 36.8487 22.1374 36.7507 22.2376 36.675L26.398 33.4936C26.5694 33.3606 26.7866 33.3012 27.0018 33.3283C27.217 33.3554 27.4126 33.4669 27.5457 33.6382C27.6122 33.7232 27.6609 33.8207 27.6891 33.9248C27.7174 34.029 27.7245 34.1377 27.71 34.2447C27.6956 34.3516 27.6599 34.4546 27.6051 34.5475C27.5502 34.6405 27.4774 34.7215 27.3908 34.7859L24.0854 37.3189L27.3908 39.8519C27.5634 39.9836 27.6767 40.1785 27.7057 40.3937C27.7348 40.6089 27.6772 40.8268 27.5457 40.9996C27.4687 41.0983 27.3704 41.1783 27.2581 41.2335C27.1458 41.2888 27.0224 41.3179 26.8972 41.3186" fill="white"/>
<path d="M26.8927 41.3186C26.7119 41.322 26.5362 41.2596 26.398 41.143L22.2376 37.9719C22.1389 37.8949 22.059 37.7966 22.0037 37.6843C21.9485 37.572 21.9193 37.4486 21.9185 37.3235C21.9173 37.198 21.9456 37.074 22.001 36.9613C22.0564 36.8487 22.1374 36.7507 22.2376 36.675L26.398 33.4936C26.5694 33.3606 26.7866 33.3012 27.0018 33.3283C27.217 33.3554 27.4126 33.4669 27.5457 33.6382C27.6122 33.7232 27.6609 33.8207 27.6891 33.9248C27.7174 34.029 27.7245 34.1377 27.71 34.2447C27.6956 34.3516 27.6599 34.4546 27.6051 34.5475C27.5502 34.6405 27.4774 34.7215 27.3908 34.7859L24.0854 37.3189L27.3908 39.8519C27.5634 39.9836 27.6767 40.1785 27.7057 40.3937C27.7348 40.6089 27.6772 40.8268 27.5457 40.9996C27.4687 41.0983 27.3704 41.1783 27.2581 41.2335C27.1458 41.2888 27.0224 41.3179 26.8972 41.3186" stroke="white" stroke-miterlimit="10"/>
<path d="M34.9562 41.3186C34.8307 41.3198 34.7067 41.2916 34.5941 41.2361C34.4815 41.1807 34.3834 41.0997 34.3078 40.9996C34.24 40.9155 34.1899 40.8186 34.1604 40.7148C34.1309 40.6109 34.1227 40.5021 34.1362 40.395C34.1497 40.2879 34.1846 40.1846 34.239 40.0912C34.2933 39.9979 34.3659 39.9165 34.4524 39.8519L37.7681 37.3189L34.4524 34.7859C34.3659 34.7213 34.2933 34.6398 34.239 34.5465C34.1846 34.4532 34.1497 34.3499 34.1362 34.2428C34.1227 34.1356 34.1309 34.0269 34.1604 33.923C34.1899 33.8191 34.24 33.7223 34.3078 33.6382C34.4408 33.4669 34.6365 33.3554 34.8517 33.3283C35.0669 33.3012 35.2841 33.3606 35.4555 33.4936L39.6056 36.675C39.7057 36.7507 39.7867 36.8487 39.8421 36.9613C39.8975 37.074 39.9258 37.198 39.9246 37.3235C39.9249 37.4488 39.8963 37.5725 39.8409 37.685C39.7856 37.7975 39.7051 37.8957 39.6056 37.9719L35.4509 41.1545C35.3086 41.2637 35.1355 41.3252 34.9562 41.3301" fill="white"/>
<path d="M34.9562 41.3186C34.8307 41.3198 34.7067 41.2916 34.5941 41.2361C34.4815 41.1807 34.3834 41.0997 34.3078 40.9996C34.24 40.9155 34.1899 40.8186 34.1604 40.7148C34.1309 40.6109 34.1227 40.5021 34.1362 40.395C34.1497 40.2879 34.1846 40.1846 34.239 40.0912C34.2933 39.9979 34.3659 39.9165 34.4524 39.8519L37.7681 37.3189L34.4524 34.7859C34.3659 34.7213 34.2933 34.6398 34.239 34.5465C34.1846 34.4532 34.1497 34.3499 34.1362 34.2428C34.1227 34.1356 34.1309 34.0269 34.1604 33.923C34.1899 33.8191 34.24 33.7223 34.3078 33.6382C34.4408 33.4669 34.6365 33.3554 34.8517 33.3283C35.0669 33.3012 35.2841 33.3606 35.4555 33.4936L39.6056 36.675C39.7057 36.7507 39.7867 36.8487 39.8421 36.9613C39.8975 37.074 39.9258 37.198 39.9246 37.3235C39.9249 37.4488 39.8963 37.5725 39.8409 37.685C39.7856 37.7975 39.7051 37.8957 39.6056 37.9719L35.4509 41.1545C35.3086 41.2637 35.1355 41.3252 34.9562 41.3301" stroke="white" stroke-miterlimit="10"/>
<path d="M29.4163 43.738C29.3433 43.7378 29.2707 43.7274 29.2005 43.7071C29.0977 43.6804 29.0011 43.6336 28.9164 43.5693C28.8317 43.5051 28.7607 43.4247 28.7073 43.3328C28.6539 43.2409 28.6193 43.1393 28.6055 43.0339C28.5916 42.9285 28.5988 42.8214 28.6267 42.7189L31.6543 31.5149C31.7118 31.3072 31.8489 31.1305 32.0358 31.023C32.2227 30.9156 32.4444 30.8862 32.6528 30.9411C32.7557 30.9677 32.8523 31.0146 32.937 31.0788C33.0217 31.143 33.0927 31.2235 33.1461 31.3154C33.1995 31.4073 33.2341 31.5089 33.2479 31.6142C33.2618 31.7196 33.2545 31.8267 33.2267 31.9293L30.199 43.1298C30.1514 43.3037 30.048 43.4573 29.9048 43.5669C29.7616 43.6766 29.5864 43.7363 29.406 43.7369" fill="white"/>
<path d="M29.4163 43.738C29.3433 43.7378 29.2707 43.7274 29.2005 43.7071C29.0977 43.6804 29.0011 43.6336 28.9164 43.5693C28.8317 43.5051 28.7607 43.4247 28.7073 43.3328C28.6539 43.2409 28.6193 43.1393 28.6055 43.0339C28.5916 42.9285 28.5988 42.8214 28.6267 42.7189L31.6543 31.5149C31.7118 31.3072 31.8489 31.1305 32.0358 31.023C32.2227 30.9156 32.4444 30.8862 32.6528 30.9411C32.7557 30.9677 32.8523 31.0146 32.937 31.0788C33.0217 31.143 33.0927 31.2235 33.1461 31.3154C33.1995 31.4073 33.2341 31.5089 33.2479 31.6142C33.2618 31.7196 33.2545 31.8267 33.2267 31.9293L30.199 43.1298C30.1514 43.3037 30.048 43.4573 29.9048 43.5669C29.7616 43.6766 29.5864 43.7363 29.406 43.7369" stroke="white" stroke-miterlimit="10"/>
<path d="M2.70565 51.4921H59.1339C59.1064 50.6264 58.7425 49.8055 58.1196 49.2038C57.4966 48.602 56.6636 48.2668 55.7975 48.2693H6.05122C5.18509 48.2668 4.35209 48.602 3.72913 49.2038C3.10616 49.8055 2.74231 50.6264 2.71483 51.4921H2.70565ZM59.9453 53.1184H1.89193C1.78442 53.1193 1.67779 53.099 1.57815 53.0586C1.47851 53.0182 1.38782 52.9586 1.31127 52.8831C1.23472 52.8076 1.17381 52.7178 1.13205 52.6187C1.09028 52.5197 1.06847 52.4133 1.06787 52.3058V51.5851C1.07395 50.2689 1.60221 49.0091 2.5366 48.0822C3.471 47.1553 4.73511 46.6373 6.05122 46.6419H55.7975C57.112 46.6394 58.3738 47.1585 59.3061 48.0852C60.2384 49.0119 60.765 50.2706 60.7705 51.5851V52.3058C60.7708 52.4136 60.7496 52.5204 60.7082 52.62C60.6668 52.7195 60.6059 52.8098 60.5292 52.8856C60.4525 52.9613 60.3614 53.0211 60.2614 53.0612C60.1613 53.1014 60.0542 53.1212 59.9464 53.1195" fill="white"/>
<path d="M59.9453 53.1184H1.89193C1.78442 53.1193 1.67779 53.099 1.57815 53.0586C1.47851 53.0182 1.38782 52.9586 1.31127 52.8831C1.23472 52.8076 1.17381 52.7178 1.13205 52.6187C1.09028 52.5197 1.06847 52.4133 1.06787 52.3058V51.5851C1.07395 50.2689 1.60221 49.0091 2.5366 48.0822C3.471 47.1553 4.73511 46.6373 6.05122 46.6419H55.7975C57.112 46.6394 58.3738 47.1585 59.3061 48.0852C60.2384 49.0119 60.765 50.2706 60.7705 51.5851V52.3058C60.7708 52.4136 60.7496 52.5204 60.7082 52.62C60.6668 52.7195 60.6059 52.8098 60.5292 52.8856C60.4525 52.9613 60.3614 53.0211 60.2614 53.0612C60.1613 53.1014 60.0542 53.1212 59.9464 53.1195M2.70565 51.4921H59.1339C59.1064 50.6264 58.7425 49.8055 58.1196 49.2038C57.4966 48.602 56.6636 48.2668 55.7975 48.2693H6.05122C5.18509 48.2668 4.35209 48.602 3.72913 49.2038C3.10616 49.8055 2.74231 50.6264 2.71483 51.4921H2.70565Z" stroke="white" stroke-miterlimit="10"/>
</svg>
