<svg width="83" height="83" viewBox="0 0 83 83" fill="none" xmlns="http://www.w3.org/2000/svg">
<path d="M12.6695 71.3505C8.70579 67.5222 5.54423 62.9429 3.36925 57.8797C1.19428 52.8166 0.0494503 47.371 0.00156691 41.8606C-0.0463165 36.3503 1.0037 30.8856 3.09036 25.7854C5.17702 20.6852 8.25852 16.0516 12.1551 12.1551C16.0516 8.25852 20.6852 5.17702 25.7854 3.09036C30.8856 1.0037 36.3503 -0.0463165 41.8606 0.00156691C47.371 0.0494503 52.8166 1.19428 57.8797 3.36925C62.9429 5.54423 67.5222 8.70579 71.3505 12.6695C78.91 20.4965 83.093 30.9794 82.9984 41.8606C82.9039 52.7418 78.5394 63.1505 70.8449 70.8449C63.1505 78.5394 52.7418 82.9039 41.8606 82.9984C30.9794 83.093 20.4965 78.91 12.6695 71.3505ZM65.499 65.499C71.7286 59.2693 75.2284 50.82 75.2284 42.01C75.2284 33.1999 71.7286 24.7506 65.499 18.521C59.2693 12.2913 50.82 8.7915 42.01 8.7915C33.1999 8.7915 24.7506 12.2913 18.521 18.521C12.2913 24.7506 8.7915 33.1999 8.7915 42.01C8.7915 50.82 12.2913 59.2693 18.521 65.499C24.7506 71.7286 33.1999 75.2284 42.01 75.2284C50.82 75.2284 59.2693 71.7286 65.499 65.499ZM29.56 25.41L62.76 42.01L29.56 58.61V25.41Z" fill="white"/>
</svg>
