<svg width="1728" height="471" viewBox="0 0 1728 471" fill="none" xmlns="http://www.w3.org/2000/svg">
  <g clip-path="url(#clip0_7954_18779)">
    <mask id="mask0_7954_18779" style="mask-type:alpha" maskUnits="userSpaceOnUse" x="0" y="0" width="1728" height="471">
      <path d="M1728 0.367676H0V470.368H1728V0.367676Z" fill="url(#paint0_linear_7954_18779)"/>
    </mask>
    <g mask="url(#mask0_7954_18779)">
      <g opacity="0.1">
        <path d="M512.813 0.63916C746.938 0.63916 981.062 0.63916 1215.19 0.63916C1386.04 157.183 1556.98 313.677 1728 470.122C1152 470.45 576 470.45 0 470.122C171.089 313.726 342.027 157.232 512.813 0.63916Z" stroke="black" stroke-opacity="0.36" stroke-miterlimit="10"/>
        <path d="M25.3682 446.923C304.707 450.547 584.532 444.68 864 444.68C1143.47 444.68 1423.2 450.547 1702.63 446.923" stroke="black" stroke-opacity="0.36" stroke-miterlimit="10"/>
        <path d="M49.3389 425.031C320.817 429.962 592.425 414.505 864 414.973C1135.58 415.442 1407.31 430.06 1678.66 425.031" stroke="black" stroke-opacity="0.36" stroke-miterlimit="10"/>
        <path d="M71.9463 404.397C336.376 409.155 599.506 380.977 864 381.421C1128.49 381.865 1391.82 409.056 1656.05 404.397" stroke="black" stroke-opacity="0.36" stroke-miterlimit="10"/>
        <path d="M93.3506 384.675C351.576 387.929 605.677 344.738 864 344.738C1122.32 344.738 1376.39 387.979 1634.65 384.675" stroke="black" stroke-opacity="0.36" stroke-miterlimit="10"/>
        <path d="M113.587 366.186C366.551 367.049 610.939 307.439 863.903 307.439C1116.87 307.439 1361.32 367.049 1614.22 366.186" stroke="black" stroke-opacity="0.36" stroke-miterlimit="10"/>
        <path d="M132.751 348.634C381.2 346.514 615.389 269.228 864 269.228C1112.61 269.228 1346.77 346.514 1595.25 348.634" stroke="black" stroke-opacity="0.36" stroke-miterlimit="10"/>
        <path d="M151.038 331.969C395.492 326.743 619.125 231.831 864.001 231.831C1108.88 231.831 1332.51 326.743 1576.96 331.969" stroke="black" stroke-opacity="0.36" stroke-miterlimit="10"/>
        <path d="M168.22 316.143C409.425 307.958 622.307 196.258 864 196.258C1105.69 196.258 1318.74 307.958 1559.78 316.143" stroke="black" stroke-opacity="0.36" stroke-miterlimit="10"/>
        <path d="M184.688 301.055C422.905 290.504 625.068 163 863.999 163C1102.93 163 1305.13 290.504 1543.31 301.055" stroke="black" stroke-opacity="0.36" stroke-miterlimit="10"/>
        <path d="M202.65 284.611C437.847 273.394 628.154 134.23 864 134.23C1099.85 134.23 1290.35 273.443 1525.35 284.611" stroke="black" stroke-opacity="0.36" stroke-miterlimit="10"/>
        <path d="M223.958 265.112C454.932 251.257 631.76 96.2417 864 96.2417C1096.24 96.2417 1272.94 251.183 1503.88 265.062" stroke="black" stroke-opacity="0.36" stroke-miterlimit="10"/>
        <path d="M243.9 246.82C471.854 230.722 634.584 62.2466 863.999 62.2466C1093.41 62.2466 1256.14 230.722 1484.1 246.82" stroke="black" stroke-opacity="0.36" stroke-miterlimit="10"/>
        <path d="M262.676 229.685C488.128 214.302 637.054 36.6558 864 36.6558C1090.95 36.6558 1239.87 214.302 1465.32 229.685" stroke="black" stroke-opacity="0.36" stroke-miterlimit="10"/>
        <path d="M283.172 210.9C499.009 195.32 646.702 30.2466 864.001 30.2466C1081.3 30.2466 1228.99 195.419 1444.83 210.9" stroke="black" stroke-opacity="0.36" stroke-miterlimit="10"/>
        <path d="M302.302 193.373C508.557 178.039 656.022 24.9712 863.999 24.9712C1071.98 24.9712 1219.28 178.014 1425.7 193.373" stroke="black" stroke-opacity="0.36" stroke-miterlimit="10"/>
        <path d="M320.622 176.609C517.978 161.818 665.313 22.605 864 22.605C1062.69 22.605 1209.92 161.892 1407.38 176.609" stroke="black" stroke-opacity="0.36" stroke-miterlimit="10"/>
        <path d="M342.385 156.689C530.126 144.215 675.122 20.3354 864 20.3354C1052.88 20.3354 1198.07 144.239 1385.62 156.689" stroke="black" stroke-opacity="0.36" stroke-miterlimit="10"/>
        <path d="M362.459 138.299C541.301 127.871 684.348 19.9663 864.001 19.9663C1043.65 19.9663 1186.6 127.846 1365.54 138.299" stroke="black" stroke-opacity="0.36" stroke-miterlimit="10"/>
        <path d="M381.037 121.29C551.044 112.661 693.409 18.7105 864 19.3514C1034.59 19.9924 1176.7 112.637 1346.96 121.29" stroke="black" stroke-opacity="0.36" stroke-miterlimit="10"/>
        <path d="M398.285 105.511C560.691 98.1151 701.205 19.2271 864.001 19.2271C1026.8 19.2271 1167.38 98.1151 1329.72 105.511" stroke="black" stroke-opacity="0.36" stroke-miterlimit="10"/>
        <path d="M418.067 87.3913C571.866 81.4008 709.879 16.4168 864.002 16.047C1018.13 15.6772 1156.33 81.4008 1309.94 87.3913" stroke="black" stroke-opacity="0.36" stroke-miterlimit="10"/>
        <path d="M438.042 69.124C583.363 64.8098 718.42 14.0503 864.001 14.0503C1009.58 14.0503 1144.61 64.8098 1289.96 69.124" stroke="black" stroke-opacity="0.36" stroke-miterlimit="10"/>
        <path d="M456.361 52.4088C594.212 49.7217 725.955 13.1127 864.065 12.9648C1002.18 12.8169 1133.92 49.7217 1271.77 52.4088" stroke="black" stroke-opacity="0.36" stroke-miterlimit="10"/>
        <path d="M475.168 35.1523C605.645 33.969 733.491 10.8696 864 10.8696C994.51 10.8696 1122.36 33.969 1252.83 35.1523" stroke="black" stroke-opacity="0.36" stroke-miterlimit="10"/>
        <path d="M494.949 17.008C618.15 17.1313 740.767 7.14697 864.001 7.14697C987.234 7.14697 1109.85 17.2299 1233.05 17.008" stroke="black" stroke-opacity="0.36" stroke-miterlimit="10"/>
        <path d="M1188.16 0.663574C1344.98 157.454 1500.79 315.649 1661.41 470.146" stroke="black" stroke-opacity="0.36" stroke-miterlimit="10"/>
        <path d="M1161.2 0.663574C1229.67 73.7829 1303.5 143.944 1371.45 217.359C1448.4 300.463 1516.09 388.103 1595.09 470.171" stroke="black" stroke-opacity="0.36" stroke-miterlimit="10"/>
        <path d="M1134.15 0.63916C1195.37 69.4197 1265.7 133.763 1324.78 203.554C1398.02 290.085 1453.89 384.183 1528.6 470.171" stroke="black" stroke-opacity="0.36" stroke-miterlimit="10"/>
        <path d="M1107.12 0.61377C1161.24 63.6256 1227.3 121.263 1277.65 186.1C1348.23 277.092 1392.15 378.636 1462.14 470.17" stroke="black" stroke-opacity="0.36" stroke-miterlimit="10"/>
        <path d="M1080 0.564941C1124.44 58.4737 1188.75 106.867 1230.55 165.885C1298.76 262.153 1330.79 372.152 1395.59 470.171" stroke="black" stroke-opacity="0.36" stroke-miterlimit="10"/>
        <path d="M1053.11 0.539551C1090.46 51.2744 1152.24 91.1129 1186.28 143.229C1252.38 244.649 1271.44 365.446 1329.2 470.145" stroke="black" stroke-opacity="0.36" stroke-miterlimit="10"/>
        <path d="M1026.08 0.491699C1056.74 44.4225 1115.31 76.0516 1142.17 121.437C1169.48 167.562 1178.97 227.122 1193.68 276.526C1213.17 342.003 1234.09 406.617 1262.77 470.147" stroke="black" stroke-opacity="0.36" stroke-miterlimit="10"/>
        <path d="M999.089 0.466309C1024.68 37.2232 1077.04 61.8511 1098.29 100.26C1124.89 148.086 1128.53 214.13 1140.09 265.432C1155.58 334.311 1172.18 402.598 1196.31 470.047" stroke="black" stroke-opacity="0.36" stroke-miterlimit="10"/>
        <path d="M972.065 0.416504C992.723 33.303 1036.44 50.8802 1053.85 85.1718C1080.65 137.904 1079.16 210.382 1088.25 266.688C1099.29 334.951 1111.77 402.721 1129.86 470.121" stroke="black" stroke-opacity="0.36" stroke-miterlimit="10"/>
        <path d="M945.072 0.393066C960.728 28.0778 996.165 39.8371 1009.68 68.8038C1035.01 123.04 1027.77 200.843 1033.97 258.628C1041.54 329.406 1050.21 399.912 1063.4 470.221" stroke="black" stroke-opacity="0.36" stroke-miterlimit="10"/>
        <path d="M918.049 0.393066C928.67 22.8762 953.193 31.825 962.905 55.2202C986.259 111.404 974.469 192.535 978.269 251.849C982.979 324.722 988.306 397.471 996.946 470.122" stroke="black" stroke-opacity="0.36" stroke-miterlimit="10"/>
        <path d="M891.023 0.367676C895.084 16.6383 907.979 29.3837 913.565 45.7776C933.704 104.944 919.314 185.927 921.198 247.411C923.505 321.689 926.071 395.917 930.456 470.146" stroke="black" stroke-opacity="0.36" stroke-miterlimit="10"/>
        <path d="M864.001 0.393066V470.171" stroke="black" stroke-opacity="0.36" stroke-miterlimit="10"/>
        <path d="M836.975 0.367676C832.915 16.6383 820.02 29.3837 814.433 45.7776C794.295 104.944 808.684 185.927 806.8 247.411C804.494 321.689 801.928 395.917 797.543 470.146" stroke="black" stroke-opacity="0.36" stroke-miterlimit="10"/>
        <path d="M809.951 0.393066C799.33 22.8762 774.807 31.825 765.095 55.2202C741.741 111.404 753.532 192.535 749.731 251.849C745.022 324.722 739.695 397.471 731.055 470.122" stroke="black" stroke-opacity="0.36" stroke-miterlimit="10"/>
        <path d="M782.928 0.393066C767.272 28.0778 731.835 39.8371 718.323 68.8038C692.987 123.04 700.231 200.843 694.027 258.628C686.459 329.406 677.786 399.912 664.599 470.221" stroke="black" stroke-opacity="0.36" stroke-miterlimit="10"/>
        <path d="M755.935 0.416504C735.277 33.303 691.558 50.8802 674.148 85.1718C647.351 137.904 648.845 210.382 639.75 266.688C628.706 334.951 616.234 402.721 598.142 470.121" stroke="black" stroke-opacity="0.36" stroke-miterlimit="10"/>
        <path d="M728.911 0.467285C703.316 37.2242 650.957 61.8521 629.714 100.261C603.112 148.087 599.474 214.131 587.911 265.433C572.417 334.312 555.819 402.599 531.686 470.048" stroke="black" stroke-opacity="0.36" stroke-miterlimit="10"/>
        <path d="M701.918 0.491699C671.256 44.4225 612.692 76.0516 585.83 121.437C558.513 167.562 549.029 227.122 534.315 276.526C514.826 342.003 493.908 406.617 465.228 470.147" stroke="black" stroke-opacity="0.36" stroke-miterlimit="10"/>
        <path d="M674.895 0.539551C637.542 51.2744 575.762 91.1129 541.722 143.229C475.623 244.649 456.556 365.446 398.805 470.145" stroke="black" stroke-opacity="0.36" stroke-miterlimit="10"/>
        <path d="M648.002 0.564941C603.567 58.4737 539.254 106.867 497.451 165.885C429.241 262.153 397.214 372.152 332.414 470.171" stroke="black" stroke-opacity="0.36" stroke-miterlimit="10"/>
        <path d="M620.879 0.61377C566.765 63.6256 500.698 121.263 450.353 186.1C379.771 277.092 335.856 378.636 265.859 470.17" stroke="black" stroke-opacity="0.36" stroke-miterlimit="10"/>
        <path d="M593.854 0.63916C532.627 69.4197 462.305 133.763 403.222 203.554C329.977 290.085 274.109 384.183 199.402 470.171" stroke="black" stroke-opacity="0.36" stroke-miterlimit="10"/>
        <path d="M566.797 0.663574C498.327 73.7829 424.497 143.944 356.546 217.359C279.598 300.463 211.907 388.103 132.913 470.171" stroke="black" stroke-opacity="0.36" stroke-miterlimit="10"/>
        <path d="M539.837 0.663574C383.018 157.454 227.206 315.649 66.5859 470.146" stroke="black" stroke-opacity="0.36" stroke-miterlimit="10"/>
      </g>
    </g>
  </g>
  <defs>
    <linearGradient id="paint0_linear_7954_18779" x1="864" y1="0.367676" x2="864" y2="470.368" gradientUnits="userSpaceOnUse">
      <stop stop-color="#D9D9D9" stop-opacity="0"/>
      <stop offset="0.28125" stop-color="#D9D9D9"/>
      <stop offset="0.739583" stop-color="#D9D9D9"/>
      <stop offset="1" stop-color="#D9D9D9" stop-opacity="0"/>
    </linearGradient>
    <clipPath id="clip0_7954_18779">
      <rect width="1728" height="470" fill="white" transform="translate(0 0.367676)"/>
    </clipPath>
  </defs>
</svg>
